# Blender v2.76 (sub 0) OBJ File: 'house2.blend'
# www.blender.org
o Wall2.001_Cube.003
v 6.378580 -0.001786 -6.109905
v 6.251005 -0.001786 -6.109908
v 6.251005 -0.001786 5.584450
v 6.378580 3.035503 -2.199028
v 6.378580 4.250707 5.584454
v 6.378580 4.250708 -6.109902
v 6.378580 3.035503 -4.199028
v 6.251005 4.250708 -6.109905
v 6.251005 3.035503 -4.199028
v 6.251005 1.035503 -4.199028
v 6.251005 3.035503 -2.199028
v 6.251005 4.250707 5.584449
v 6.251005 1.035503 -2.199028
v 6.378580 1.035503 -2.199028
v 6.378580 1.035503 -4.199028
v 6.378580 -0.001786 5.584451
vt 0.000000 0.000000
vt 0.499107 0.445046
vt 1.017751 1.400486
vt 2.017751 1.400486
vt 0.017751 0.400486
vt -1.500893 4.292225
vt 0.625354 4.292224
vt -0.500893 -0.554954
vt 0.017751 1.400486
vt 2.625354 0.445048
vt -0.500893 -1.554954
vt -0.500893 4.292225
vt 0.625354 -1.554952
vt 0.017751 -0.599514
vt 0.499107 0.292225
vt 2.017751 -3.599514
vt 1.017751 -3.599514
vn -0.000000 1.000000 0.000000
vn 1.000000 0.000000 0.000000
vn -0.000000 -0.000000 1.000000
vn -1.000000 0.000000 0.000000
vn 0.000000 -0.000000 -1.000000
vn 0.000000 -1.000000 -0.000000
s off
f 1/1/1 2/1/1 3/1/1
f 4/1/2 6/1/2 5/1/2
f 7/1/2 1/1/2 6/1/2
f 8/1/3 2/1/3 1/1/3
f 2/2/4 10/3/4 9/4/4
f 11/5/4 3/6/4 12/7/4
f 3/1/5 12/1/5 5/1/5
f 6/1/6 5/1/6 12/1/6
f 11/1/3 13/1/3 14/1/3
f 9/1/1 11/1/1 4/1/1
f 13/1/6 10/1/6 15/1/6
f 10/1/5 9/1/5 7/1/5
f 16/1/1 1/1/1 3/1/1
f 4/1/2 16/1/2 14/1/2
f 6/1/2 4/1/2 7/1/2
f 4/1/2 5/1/2 16/1/2
f 16/1/2 1/1/2 14/1/2
f 15/1/2 1/1/2 7/1/2
f 1/1/2 15/1/2 14/1/2
f 6/1/3 8/1/3 1/1/3
f 10/5/4 2/8/4 13/9/4
f 2/2/4 9/4/4 8/10/4
f 13/5/4 2/11/4 3/12/4
f 11/5/4 8/13/4 9/14/4
f 3/15/4 11/16/4 13/17/4
f 11/5/4 12/7/4 8/13/4
f 16/1/5 3/1/5 5/1/5
f 8/1/6 6/1/6 12/1/6
f 4/1/3 11/1/3 14/1/3
f 7/1/1 9/1/1 4/1/1
f 14/1/6 13/1/6 15/1/6
f 15/1/5 10/1/5 7/1/5
o Wall2.002_Cube.004
v 3.251005 -0.001786 -6.009907
v 3.251005 -0.001786 1.806190
v 3.378580 -0.001786 1.806190
v 3.378580 3.368791 3.506190
v 3.378580 4.250707 5.585432
v 3.378580 3.368791 1.806190
v 3.251005 4.250708 -6.009906
v 3.378580 -0.001786 -6.009906
v 3.251005 3.368791 1.806190
v 3.251005 4.250707 5.585429
v 3.251005 -0.001786 5.585430
v 3.378580 -0.001786 5.585430
v 3.378580 -0.001786 3.506190
v 3.378580 4.250708 -6.009904
v 3.251005 3.368791 3.506190
v 3.251005 -0.001786 3.506190
vt 0.179002 0.495047
vt 0.233677 4.403095
vt 0.179002 4.403095
vt 0.229482 0.253095
vt 0.229482 -0.596905
vt 0.607446 1.292716
vt 0.179002 0.625354
vt 0.233677 -1.500893
vt 0.179002 -1.500893
vt 0.229482 0.403095
vt 0.607446 2.292715
vt 0.607446 -3.504953
vt 0.179002 0.292715
vt 0.233677 -0.746905
vt 0.233677 0.292715
vt 0.179002 0.499107
vt 0.233677 2.625354
vt 0.179002 2.625354
vt 0.233677 0.495048
vt 0.179002 6.292715
vt 0.233677 6.292716
vt 0.233677 0.184396
vt 0.179002 0.403095
vt 0.233677 1.253095
vt 0.179002 1.253095
vt 0.179002 0.184396
vt 0.607446 0.495048
vt 0.229482 4.403095
vt -1.215051 0.495047
vt -1.215051 1.292715
vt -1.215051 0.253095
vt 0.499235 0.495047
vt 1.943768 4.403095
vt 0.499235 4.403095
vt 0.607446 6.292716
vt 0.233677 0.625354
vt 0.607446 0.292715
vt 0.229482 -0.746905
vt -1.215051 0.292715
vt -1.215051 -3.504953
vt -1.215051 0.403095
vt 0.499235 0.292715
vt 1.943768 -0.746905
vt 0.499235 -0.746905
vt 0.229482 -1.596905
vt 0.179002 0.253095
vt 0.233677 0.253095
vt 0.179002 1.292715
vt 0.233677 0.499107
vt 0.233677 0.403095
vn 0.000000 -1.000000 -0.000000
vn 1.000000 -0.000000 0.000000
vn 0.000000 0.000000 -1.000000
vn -1.000000 0.000000 0.000000
vn -0.000000 0.000000 1.000000
vn -0.000000 1.000000 0.000000
s off
f 17/18/7 19/19/7 18/20/7
f 20/21/8 22/22/8 21/23/8
f 23/24/9 24/25/9 17/26/9
f 25/27/10 26/28/10 23/29/10
f 27/30/7 29/31/7 28/32/7
f 27/33/11 21/34/11 26/35/11
f 30/36/12 26/37/12 21/38/12
f 22/39/11 18/26/11 19/25/11
f 25/40/7 20/41/7 31/42/7
f 31/43/9 29/25/9 32/26/9
f 24/36/7 19/19/7 17/18/7
f 30/44/8 22/45/8 24/46/8
f 20/21/8 28/47/8 29/48/8
f 24/49/8 22/50/8 19/51/8
f 20/21/8 21/23/8 28/47/8
f 30/44/8 21/52/8 22/45/8
f 30/53/9 24/25/9 23/24/9
f 26/54/10 31/55/10 27/56/10
f 25/27/10 17/57/10 18/58/10
f 27/59/10 31/60/10 32/61/10
f 25/27/10 23/29/10 17/57/10
f 26/54/10 25/62/10 31/55/10
f 32/63/7 29/64/7 27/65/7
f 28/66/11 21/34/11 27/33/11
f 23/18/12 26/37/12 30/36/12
f 25/43/11 18/26/11 22/39/11
f 22/67/7 20/41/7 25/40/7
f 20/39/9 29/25/9 31/43/9
o Plane
v 6.505926 -0.001786 6.137276
v 6.505926 -0.001786 -6.620205
v -5.911352 -0.001786 -6.620205
v -5.911352 -0.001786 6.137276
vn 0.000000 1.000000 0.000000
s off
f 33//13 34//13 35//13
f 36//13 33//13 35//13
o Wall1.001_Cube.002
v -5.485662 -0.001786 -6.078870
v -5.485664 -0.001786 -5.951295
v 6.305672 -0.001786 -5.951296
v 6.305673 -0.001786 -6.078871
v 2.299393 3.035503 -6.078871
v 2.299393 1.035503 -6.078871
v 0.299393 3.035503 -6.078871
v -5.485659 4.250708 -6.078870
v -5.485662 4.250708 -5.951295
v 0.299393 3.035503 -5.951296
v 6.305671 4.250708 -5.951296
v 2.299393 3.035503 -5.951296
v 6.305676 4.250708 -6.078871
v 0.299393 1.035503 -6.078871
v 0.299393 1.035503 -5.951296
v 2.299393 1.035503 -5.951296
vt 0.000000 0.000000
vt 0.649696 0.017751
vt 3.652836 0.625354
vt -2.242831 0.625354
vt 2.652836 -1.500893
vt 2.652836 0.625354
vt -2.242832 -1.500893
vt 0.649696 -0.982249
vt 0.652836 0.625354
vt -2.350304 0.017751
vt -1.350304 0.017751
vt 0.757168 0.499107
vt 6.652836 0.499107
vt 3.649696 1.017751
vt 2.652836 -0.500893
vt 0.649696 1.017751
vt 0.652836 0.499107
vt -1.350304 1.017751
vt -2.350304 1.017751
vn 0.000000 1.000000 0.000000
vn -0.000000 0.000000 -1.000000
vn 1.000000 -0.000000 0.000000
vn 0.000000 -0.000000 1.000000
vn -1.000000 -0.000000 -0.000000
vn 0.000000 -1.000000 0.000000
s off
f 37/68/14 38/68/14 39/68/14
f 40/68/15 42/68/15 41/68/15
f 43/68/15 37/68/15 44/68/15
f 45/68/16 38/68/16 37/68/16
f 46/69/17 47/70/17 45/71/17
f 48/69/17 39/72/17 47/73/17
f 39/68/18 47/68/18 49/68/18
f 44/68/19 49/68/19 47/68/19
f 41/68/14 43/68/14 46/68/14
f 42/68/16 41/68/16 48/68/16
f 43/68/18 50/68/18 51/68/18
f 50/68/19 42/68/19 52/68/19
f 40/68/14 37/68/14 39/68/14
f 42/68/15 40/68/15 50/68/15
f 40/68/15 41/68/15 49/68/15
f 50/68/15 40/68/15 37/68/15
f 43/68/15 49/68/15 41/68/15
f 37/68/15 43/68/15 50/68/15
f 43/68/15 44/68/15 49/68/15
f 44/68/16 45/68/16 37/68/16
f 46/69/17 38/74/17 51/75/17
f 47/76/17 46/77/17 48/78/17
f 46/69/17 45/71/17 38/74/17
f 38/79/17 39/80/17 51/81/17
f 52/69/17 39/82/17 48/83/17
f 39/84/17 52/85/17 51/86/17
f 40/68/18 39/68/18 49/68/18
f 45/68/19 44/68/19 47/68/19
f 48/68/14 41/68/14 46/68/14
f 52/68/16 42/68/16 48/68/16
f 46/68/18 43/68/18 51/68/18
f 51/68/19 50/68/19 52/68/19
o Wall1_Cube
v -5.487112 -0.001786 5.478139
v -5.487114 -0.001786 5.605713
v -3.251267 -0.001786 5.605713
v -1.251267 3.368790 5.478138
v 6.305676 4.250707 5.478138
v -5.487109 4.250707 5.478138
v -5.487112 4.250707 5.605714
v -3.251267 3.368790 5.605713
v -1.251267 3.368790 5.605713
v 6.305672 -0.001786 5.605712
v 6.305673 -0.001786 5.478137
v -1.251267 -0.001786 5.478138
v 6.305671 4.250707 5.605713
v -3.251267 3.368790 5.478138
v -3.251267 -0.001786 5.478138
v -1.251267 -0.001786 5.605713
vt 0.000000 0.000000
vt 0.874367 0.184395
vt -1.243555 0.625354
vt 4.652838 0.625354
vt 0.756445 0.625354
vt 1.874367 0.184395
vt 0.756444 -1.500893
vt 4.652837 -1.500893
vt 0.874367 -1.500893
vt 0.756444 0.499107
vt 1.874367 2.184395
vt 1.874367 0.499107
vt 2.874367 0.184395
vn 0.000000 1.000000 0.000000
vn 0.000000 0.000000 -1.000000
vn 1.000000 -0.000000 0.000000
vn 0.000000 -0.000000 1.000000
vn -1.000000 -0.000000 -0.000000
vn 0.000000 -1.000000 -0.000000
s off
f 53/87/20 54/87/20 55/87/20
f 56/88/21 58/89/21 57/90/21
f 59/87/22 54/87/22 53/87/22
f 60/87/23 61/87/23 59/87/23
f 62/87/20 63/87/20 64/87/20
f 62/87/24 65/87/24 57/87/24
f 58/87/25 57/87/25 65/87/25
f 66/87/24 67/87/24 55/87/24
f 56/87/20 66/87/20 60/87/20
f 61/87/22 68/87/22 64/87/22
f 67/87/20 53/87/20 55/87/20
f 58/91/21 66/92/21 53/93/21
f 56/88/21 63/94/21 64/95/21
f 53/96/21 66/97/21 67/98/21
f 56/88/21 57/90/21 63/94/21
f 58/91/21 56/99/21 66/92/21
f 58/87/22 59/87/22 53/87/22
f 65/87/23 61/87/23 62/87/23
f 60/87/23 54/87/23 55/87/23
f 62/87/23 61/87/23 68/87/23
f 60/87/23 59/87/23 54/87/23
f 65/87/23 59/87/23 61/87/23
f 68/87/20 62/87/20 64/87/20
f 63/87/24 62/87/24 57/87/24
f 59/87/25 58/87/25 65/87/25
f 60/87/24 66/87/24 55/87/24
f 61/87/20 56/87/20 60/87/20
f 56/87/22 61/87/22 64/87/22
o Wall2.004_Cube.006
v -0.761420 -0.001786 -6.009906
v -0.888995 -0.001786 -6.009907
v -0.888995 -0.001786 -4.029365
v -0.761420 3.320101 -2.029365
v -0.761420 4.250707 0.010187
v -0.761420 4.250708 -6.009904
v -0.888995 4.250708 -6.009906
v -0.888995 3.320101 -4.029365
v -0.888995 3.320101 -2.029365
v -0.888995 -0.001786 0.010185
v -0.761420 -0.001786 0.010185
v -0.761420 -0.001786 -2.029365
v -0.888995 4.250707 0.010185
v -0.761420 3.320101 -4.029365
v -0.761420 -0.001786 -4.029365
v -0.888995 -0.001786 -2.029365
vt 0.119290 0.495047
vt 0.055503 0.495047
vt 0.055503 1.485317
vt 0.160050 0.485317
vt 0.625354 -1.504952
vt 0.625354 1.505094
vt 0.055503 0.625354
vt 0.055503 -1.500893
vt 0.119290 -1.500893
vt 0.160050 1.485317
vt 0.625354 -0.504953
vt 0.055503 0.505093
vt 0.119290 0.505093
vt 0.119290 -0.514683
vt 0.119290 0.499107
vt 0.055503 0.499107
vt 0.055503 2.625354
vt 0.119290 3.505094
vt 0.055503 3.505093
vt 0.119290 0.160050
vt 0.055503 0.485317
vt 0.119290 1.485317
vt 0.055503 0.160050
vt 0.119290 0.485317
vt 0.119290 -0.504953
vt 0.625354 0.495048
vt -1.500893 0.495047
vt -1.500893 1.505093
vt -1.500893 0.485317
vt 0.499107 0.495047
vt 2.160050 1.485317
vt 0.499107 1.485317
vt 0.160050 2.485317
vt 0.119290 0.625354
vt 0.625354 0.505093
vt 0.160050 -0.514683
vt -1.500893 0.505093
vt -1.500893 -0.504953
vt 0.499107 0.505093
vt 2.160050 -0.514683
vt 0.499107 -0.514683
vt 0.625354 -2.504953
vt 0.055503 1.505093
vn -0.000000 1.000000 0.000000
vn 1.000000 0.000000 0.000000
vn -0.000000 -0.000000 1.000000
vn -1.000000 0.000000 0.000000
vn 0.000000 0.000000 -1.000000
vn 0.000000 -1.000000 -0.000000
s off
f 69/100/26 70/101/26 71/102/26
f 72/103/27 74/104/27 73/105/27
f 75/106/28 70/107/28 69/108/28
f 76/103/29 77/109/29 75/110/29
f 78/111/26 79/112/26 80/113/26
f 79/114/30 78/115/30 81/116/30
f 74/100/31 73/117/31 81/118/31
f 82/119/30 83/108/30 71/107/30
f 76/120/26 77/102/26 72/121/26
f 77/122/28 84/107/28 80/108/28
f 83/123/26 69/124/26 71/120/26
f 74/125/27 82/109/27 69/126/27
f 72/103/27 79/127/27 80/128/27
f 69/129/27 82/130/27 83/131/27
f 72/103/27 73/105/27 79/127/27
f 74/125/27 72/132/27 82/109/27
f 74/133/28 75/106/28 69/108/28
f 81/134/29 77/135/29 78/136/29
f 76/103/29 70/137/29 71/128/29
f 78/138/29 77/139/29 84/140/29
f 76/103/29 75/110/29 70/137/29
f 81/134/29 75/141/29 77/135/29
f 84/120/26 78/142/26 80/123/26
f 73/133/30 79/108/30 81/106/30
f 75/101/31 74/100/31 81/118/31
f 76/122/30 82/119/30 71/107/30
f 82/123/26 76/120/26 72/121/26
f 72/119/28 77/122/28 80/108/28
o Wall2_Cube.001
v -5.400826 -0.001787 -6.088642
v -5.528401 -0.001787 -6.088645
v -5.528401 -0.001787 5.605713
v -5.400826 1.035503 -2.025462
v -5.400826 1.035502 1.811054
v -5.400826 3.035503 1.811054
v -5.400826 1.035503 -4.025462
v -5.528401 4.250708 -6.088642
v -5.528401 1.035503 -2.025462
v -5.528401 3.035503 1.811054
v -5.528401 3.035503 -2.025462
v -5.528401 4.250707 5.605712
v -5.400826 4.250707 5.605717
v -5.528401 1.035502 3.811054
v -5.528401 1.035502 1.811054
v -5.400826 3.035503 3.811054
v -5.400826 -0.001787 5.605714
v -5.400826 4.250708 -6.088639
v -5.528401 3.035503 3.811054
v -5.400826 1.035502 3.811054
v -5.528401 3.035503 -4.025462
v -5.400826 3.035503 -2.025462
v -5.528401 1.035503 -4.025462
v -5.400826 3.035503 -4.025462
vt 0.000000 0.000000
vt 0.017751 0.487269
vt 1.017751 2.405527
vt 0.017751 2.405527
vt 0.017751 1.487269
vt -0.500893 -0.544321
vt 0.017751 0.405527
vt 0.625354 1.302859
vt -1.500893 1.302857
vt 0.625354 0.455681
vt 0.017751 2.487269
vt -0.982249 0.487269
vt 0.017751 -1.512731
vt 0.625354 -3.544319
vt 1.017751 0.487269
vt -0.500893 2.302857
vt 0.499106 0.302857
vt 1.017751 -1.594473
vt 1.017751 -0.594473
vt -1.500893 -0.544321
vt 0.625354 -0.544319
vt 0.499106 0.455679
vt 1.017751 2.487269
vt 0.499106 6.302857
vt 0.625354 6.302858
vt 0.017751 4.405527
vt -0.982249 0.405527
vt 0.625354 0.302859
vt 0.017751 -0.594473
vt 0.017751 -1.594473
vn -0.000000 1.000000 0.000000
vn 1.000000 -0.000000 0.000000
vn -0.000000 -0.000000 1.000000
vn -1.000000 0.000000 0.000000
vn 0.000000 -0.000000 -1.000000
vn 0.000000 -1.000000 0.000000
s off
f 85/143/32 86/143/32 87/143/32
f 88/144/33 90/145/33 89/146/33
f 91/144/33 88/147/33 85/148/33
f 92/143/34 86/143/34 85/143/34
f 93/143/35 86/143/35 87/143/35
f 94/143/35 95/143/35 93/143/35
f 87/143/36 96/143/36 97/143/36
f 98/143/37 99/143/37 89/143/37
f 99/143/36 94/143/36 90/143/36
f 100/149/33 97/150/33 101/151/33
f 102/143/37 97/143/37 96/143/37
f 87/143/35 103/143/35 98/143/35
f 103/143/34 98/143/34 104/143/34
f 94/143/32 103/143/32 100/143/32
f 105/143/32 95/143/32 106/143/32
f 107/143/36 105/143/36 108/143/36
f 95/143/34 93/143/34 88/143/34
f 93/143/37 107/143/37 91/143/37
f 101/143/32 85/143/32 87/143/32
f 102/152/33 106/153/33 108/147/33
f 106/144/33 90/146/33 88/154/33
f 90/149/33 106/155/33 102/156/33
f 91/144/33 85/148/33 108/157/33
f 89/149/33 101/158/33 88/155/33
f 101/159/33 89/160/33 104/161/33
f 108/144/33 85/162/33 102/163/33
f 85/164/33 88/165/33 101/166/33
f 102/143/34 92/143/34 85/143/34
f 107/143/35 86/143/35 93/143/35
f 92/143/35 86/143/35 105/143/35
f 98/143/35 99/143/35 87/143/35
f 86/143/35 107/143/35 105/143/35
f 99/143/35 93/143/35 87/143/35
f 95/143/35 92/143/35 105/143/35
f 94/143/35 93/143/35 99/143/35
f 95/143/35 94/143/35 92/143/35
f 101/143/36 87/143/36 97/143/36
f 104/143/37 98/143/37 89/143/37
f 89/143/36 99/143/36 90/143/36
f 102/152/33 97/167/33 90/168/33
f 100/149/33 101/151/33 104/169/33
f 97/170/33 100/171/33 90/172/33
f 92/143/37 102/143/37 96/143/37
f 103/143/35 96/143/35 94/143/35
f 96/143/35 103/143/35 87/143/35
f 94/143/35 96/143/35 92/143/35
f 100/143/34 103/143/34 104/143/34
f 90/143/32 94/143/32 100/143/32
f 108/143/32 105/143/32 106/143/32
f 91/143/36 107/143/36 108/143/36
f 106/143/34 95/143/34 88/143/34
f 88/143/37 93/143/37 91/143/37
o Wall2.003_Cube.005
v -5.503311 -0.010857 -0.102359
v 0.202759 -0.010857 -0.102359
v 0.202759 -0.010857 0.025216
v -5.503312 -0.010857 0.025216
v -5.503311 4.241636 0.025216
v 3.247447 4.241636 -0.102359
v 2.202759 3.464757 -0.102359
v 0.202759 3.464757 -0.102359
v 0.202759 3.464757 0.025216
v 3.247445 4.241636 0.025216
v -5.503310 4.241636 -0.102359
v 3.247445 -0.010857 0.025216
v 2.202759 -0.010857 -0.102359
v 3.247445 -0.010857 -0.102359
v 2.202759 -0.010857 0.025216
v 2.202759 3.464757 0.025216
vt 0.748344 0.448821
vt 3.601379 0.448821
vt 3.601379 0.512608
vt 0.494572 0.448821
vt 0.494572 0.512608
vt 2.620818 0.512608
vt 0.123724 0.620818
vt -0.398620 0.232378
vt -1.398620 0.232378
vt 0.748344 0.620818
vt 3.601379 0.232378
vt 5.123723 0.620818
vt 0.748344 0.512608
vt 5.123723 0.512608
vt 0.620818 0.448821
vt 0.620818 0.512608
vt -1.505429 0.512608
vt 0.601380 0.448821
vt 1.123723 0.448821
vt 1.123723 0.512608
vt 2.232378 0.448821
vt 0.601380 0.512608
vt 1.601380 0.448821
vt 2.232378 0.512608
vt -1.505429 0.448821
vt 0.601380 0.494572
vt -2.251656 0.494572
vt 0.601380 2.232378
vt 0.123723 -1.505429
vt 0.601380 0.232378
vt -2.251656 -1.505429
vt -2.251655 0.620818
vt 0.123723 0.494572
vt -0.398620 0.494572
vt -0.398620 2.232378
vt 2.123724 0.620818
vt 1.123723 0.494572
vt 0.748344 -1.505429
vt 1.123723 -1.505429
vt 1.123723 0.620818
vt 0.748344 0.494572
vt 3.601379 0.494572
vt 3.601379 2.232378
vt 0.123724 0.448821
vt -4.251655 0.448821
vt 0.123723 0.512608
vt 2.620818 0.448821
vt 0.232378 0.512608
vt 0.232378 0.448821
vt -0.398620 0.512608
vn 0.000000 -1.000000 -0.000000
vn -1.000000 0.000000 -0.000000
vn 0.000000 0.000000 -1.000000
vn 0.000000 -0.000000 1.000000
vn 0.000000 1.000000 0.000000
vn 1.000000 0.000000 0.000000
s off
f 109/173/38 110/174/38 111/175/38
f 109/176/39 112/177/39 113/178/39
f 114/179/40 115/180/40 116/181/40
f 113/182/41 117/183/41 118/184/41
f 119/173/42 113/185/42 118/186/42
f 114/187/43 118/188/43 120/189/43
f 121/190/38 122/191/38 120/192/38
f 111/177/43 110/176/43 116/193/43
f 117/194/38 116/190/38 115/195/38
f 121/176/39 123/177/39 124/196/39
f 112/185/38 109/173/38 111/175/38
f 119/187/39 109/197/39 113/188/39
f 110/198/40 109/199/40 116/200/40
f 114/179/40 122/201/40 115/180/40
f 116/202/40 109/203/40 119/204/40
f 122/205/40 121/206/40 115/207/40
f 116/202/40 119/204/40 114/208/40
f 123/198/41 120/209/41 124/200/41
f 113/182/41 112/210/41 117/183/41
f 124/202/41 120/211/41 118/212/41
f 112/213/41 111/214/41 117/215/41
f 124/202/41 118/212/41 117/180/41
f 114/216/42 119/217/42 118/218/42
f 122/176/43 114/219/43 120/177/43
f 123/194/38 121/190/38 120/192/38
f 117/220/43 111/189/43 116/221/43
f 124/194/38 117/222/38 115/190/38
f 115/221/39 121/197/39 124/220/39
