# Blender v2.76 (sub 0) OBJ File: 'myroom.blend'
# www.blender.org
o Plane.001
v -7.188408 5.003118 7.196389
v -7.188408 -0.014084 7.196389
v -7.188408 5.003118 -7.196389
v -7.188408 -0.014084 -7.196389
vn 1.000000 0.000000 0.000000
s off
f 1//1 2//1 4//1 3//1
o Plane
v -7.264010 0.000000 7.264010
v 7.264010 0.000000 7.264010
v -7.264010 0.000000 -7.264010
v 7.264010 0.000000 -7.264010
vn 0.000000 1.000000 0.000000
s off
f 5//2 6//2 8//2 7//2
o Plane.002
v 0.865498 5.003118 0.335082
v 0.865497 -0.014084 0.335082
v 0.865498 5.003118 -7.186993
v 0.865497 -0.014084 -7.186993
vn 1.000000 -0.000000 0.000000
s off
f 9//3 10//3 12//3 11//3
o Plane.003
v -7.195206 5.003117 -7.184394
v -7.195206 -0.014084 -7.184394
v 7.184023 5.003118 -7.130841
v 7.184023 -0.014083 -7.130841
vn -0.003700 0.000000 1.000000
s off
f 13//4 14//4 16//4 15//4
o Plane.004
v -7.207898 5.003117 7.179921
v -7.207898 -0.014084 7.179921
v 7.196715 5.003118 7.233568
v 7.196715 -0.014083 7.233568
vn -0.003700 0.000000 1.000000
s off
f 17//5 18//5 20//5 19//5
o Plane.005
v -7.205180 5.003117 0.322176
v -7.205180 -0.014084 0.322176
v -2.399831 5.003118 0.340072
v -2.399831 -0.014083 0.340072
vn -0.003700 0.000000 1.000000
s off
f 21//6 22//6 24//6 23//6
o Plane.006
v 7.145706 5.003118 7.247622
v 7.145706 -0.014084 7.247622
v 7.145706 5.003118 -7.171601
v 7.145706 -0.014084 -7.171601
vn 1.000000 0.000000 0.000000
s off
f 25//7 26//7 28//7 27//7
o Plane.007
v 0.868605 5.003118 0.336980
v 0.868605 -0.014084 0.336980
v 3.431130 5.003118 0.346523
v 3.431130 -0.014084 0.346523
vn -0.003700 -0.000000 1.000000
s off
f 29//8 30//8 32//8 31//8
