# Blender v2.78 (sub 0) OBJ File: 'room.blend'
# www.blender.org
o Cube.008_Cube.010
v -5.922772 3.040551 2.574334
v -5.922772 3.040551 2.741470
v -0.526970 3.040550 2.574335
v -0.526970 3.040550 2.741470
v -5.922772 -0.040550 2.574334
v -5.922772 -0.040550 2.741470
v -0.526970 -0.040551 2.574335
v -0.526970 -0.040551 2.741470
vn 0.0000 1.0000 0.0000
vn 1.0000 0.0000 0.0000
vn -0.0000 -1.0000 0.0000
vn -1.0000 0.0000 0.0000
vn 0.0000 0.0000 -1.0000
vn -0.0000 0.0000 1.0000
s off
f 2//1 3//1 1//1
f 4//2 7//2 3//2
f 8//3 5//3 7//3
f 6//4 1//4 5//4
f 7//5 1//5 3//5
f 4//6 6//6 8//6
f 2//1 4//1 3//1
f 4//2 8//2 7//2
f 8//3 6//3 5//3
f 6//4 2//4 1//4
f 7//5 5//5 1//5
f 4//6 2//6 6//6
o Cube.007_Cube.009
v -2.631561 3.040551 -3.259606
v -2.631561 3.040551 -3.092471
v 2.764241 3.040550 -3.259606
v 2.764241 3.040550 -3.092470
v -2.631561 -0.040550 -3.259606
v -2.631561 -0.040550 -3.092471
v 2.764241 -0.040551 -3.259606
v 2.764241 -0.040551 -3.092470
v 0.900310 3.040551 -3.259606
v -0.898290 3.040551 -3.259606
v -0.898290 3.040551 -3.092470
v 0.900310 3.040551 -3.092470
v -0.898290 -0.040551 -3.259606
v 0.900310 -0.040551 -3.259606
v 0.900310 -0.040551 -3.092470
v -0.898290 -0.040551 -3.092470
v 2.764241 2.596730 -3.259606
v 2.764241 2.596730 -3.092470
v -2.631561 2.596731 -3.259606
v -2.631561 2.596731 -3.092471
v 0.900310 2.596730 -3.092470
v -0.898290 2.596730 -3.092470
v 0.900310 2.596730 -3.259606
v -0.898290 2.596730 -3.259606
vn 0.0000 1.0000 0.0000
vn 1.0000 0.0000 0.0000
vn -0.0000 -1.0000 0.0000
vn -1.0000 0.0000 0.0000
vn 0.0000 -0.0000 -1.0000
vn -0.0000 0.0000 1.0000
s off
f 20//7 11//7 17//7
f 26//8 15//8 25//8
f 24//9 13//9 21//9
f 28//10 9//10 27//10
f 21//11 27//11 32//11
f 19//12 28//12 30//12
f 12//12 29//12 26//12
f 20//12 30//12 29//12
f 25//11 22//11 31//11
f 31//9 30//9 32//9
f 16//9 22//9 15//9
f 23//9 21//9 22//9
f 10//7 18//7 9//7
f 19//7 17//7 18//7
f 31//11 18//11 17//11
f 25//11 17//11 11//11
f 24//8 32//8 30//8
f 26//12 23//12 16//12
f 30//12 14//12 24//12
f 32//11 9//11 18//11
f 14//10 27//10 13//10
f 12//8 25//8 11//8
f 29//10 22//10 23//10
f 20//7 12//7 11//7
f 26//8 16//8 15//8
f 24//9 14//9 13//9
f 28//10 10//10 9//10
f 21//11 13//11 27//11
f 19//12 10//12 28//12
f 12//12 20//12 29//12
f 20//12 19//12 30//12
f 25//11 15//11 22//11
f 31//9 29//9 30//9
f 16//9 23//9 22//9
f 23//9 24//9 21//9
f 10//7 19//7 18//7
f 19//7 20//7 17//7
f 31//11 32//11 18//11
f 25//11 31//11 17//11
f 24//8 21//8 32//8
f 26//12 29//12 23//12
f 30//12 28//12 14//12
f 32//11 27//11 9//11
f 14//10 28//10 27//10
f 12//8 26//8 25//8
f 29//10 31//10 22//10
o Cube.006_Cube.008
v -2.642397 3.040551 -0.253249
v -2.475261 3.040551 -0.253249
v -2.642397 3.040551 -5.441452
v -2.475261 3.040551 -5.441452
v -2.642397 -0.040551 -0.253249
v -2.475261 -0.040551 -0.253249
v -2.642397 -0.040551 -5.441452
v -2.475261 -0.040551 -5.441452
vn 0.0000 1.0000 0.0000
vn 0.0000 0.0000 -1.0000
vn 0.0000 -1.0000 0.0000
vn 0.0000 0.0000 1.0000
vn -1.0000 0.0000 0.0000
vn 1.0000 0.0000 0.0000
s off
f 34//13 35//13 33//13
f 36//14 39//14 35//14
f 40//15 37//15 39//15
f 38//16 33//16 37//16
f 39//17 33//17 35//17
f 36//18 38//18 40//18
f 34//13 36//13 35//13
f 36//14 40//14 39//14
f 40//15 38//15 37//15
f 38//16 34//16 33//16
f 39//17 37//17 33//17
f 36//18 34//18 38//18
o Cube.005_Cube.007
v 2.619423 3.040551 5.495360
v 2.786559 3.040551 5.495360
v 2.619423 3.040551 -5.495360
v 2.786559 3.040551 -5.495360
v 2.619423 -0.040551 5.495360
v 2.786559 -0.040551 5.495360
v 2.619423 -0.040551 -5.495360
v 2.786559 -0.040551 -5.495360
v 2.619423 3.040551 0.933521
v 2.619423 3.040551 3.325274
v 2.786559 3.040551 3.325274
v 2.786559 3.040551 0.933521
v 2.619423 -0.040551 3.325274
v 2.619423 -0.040551 0.933521
v 2.786559 -0.040551 0.933521
v 2.786559 -0.040551 3.325274
v 2.619423 2.594602 -5.495360
v 2.786559 2.594602 -5.495360
v 2.619423 2.594602 5.495360
v 2.786559 2.594602 5.495360
v 2.786559 2.594602 0.933521
v 2.786559 2.594602 3.325274
v 2.619423 2.594602 0.933521
v 2.619423 2.594602 3.325274
vn 0.0000 1.0000 0.0000
vn 0.0000 0.0000 -1.0000
vn 0.0000 -1.0000 0.0000
vn 0.0000 0.0000 1.0000
vn -1.0000 0.0000 0.0000
vn 1.0000 0.0000 0.0000
s off
f 52//19 43//19 49//19
f 58//20 47//20 57//20
f 56//21 45//21 53//21
f 60//22 41//22 59//22
f 53//23 59//23 64//23
f 51//24 60//24 62//24
f 44//24 61//24 58//24
f 52//24 62//24 61//24
f 47//23 63//23 57//23
f 48//21 54//21 47//21
f 55//21 53//21 54//21
f 42//19 50//19 41//19
f 51//19 49//19 50//19
f 63//23 50//23 49//23
f 57//23 49//23 43//23
f 61//22 54//22 55//22
f 58//24 55//24 48//24
f 62//24 46//24 56//24
f 64//23 41//23 50//23
f 46//22 59//22 45//22
f 44//20 57//20 43//20
f 63//21 62//21 64//21
f 56//20 64//20 62//20
f 52//19 44//19 43//19
f 58//20 48//20 47//20
f 56//21 46//21 45//21
f 60//22 42//22 41//22
f 53//23 45//23 59//23
f 51//24 42//24 60//24
f 44//24 52//24 61//24
f 52//24 51//24 62//24
f 47//23 54//23 63//23
f 48//21 55//21 54//21
f 55//21 56//21 53//21
f 42//19 51//19 50//19
f 51//19 52//19 49//19
f 63//23 64//23 50//23
f 57//23 63//23 49//23
f 61//22 63//22 54//22
f 58//24 61//24 55//24
f 62//24 60//24 46//24
f 64//23 59//23 41//23
f 46//22 60//22 59//22
f 44//20 58//20 57//20
f 63//21 61//21 62//21
f 56//20 53//20 64//20
o Cube.004_Cube.006
v -5.923193 3.040551 5.495360
v -5.756058 3.040551 5.495360
v -5.923193 3.040551 -5.495360
v -5.756058 3.040551 -5.495360
v -5.923194 -0.040551 5.495360
v -5.756058 -0.040551 5.495360
v -5.923194 -0.040551 -5.495360
v -5.756058 -0.040551 -5.495360
vn 0.0000 1.0000 0.0000
vn 0.0000 0.0000 -1.0000
vn 0.0000 -1.0000 0.0000
vn 0.0000 0.0000 1.0000
vn -1.0000 0.0000 0.0000
vn 1.0000 -0.0000 0.0000
s off
f 66//25 67//25 65//25
f 68//26 71//26 67//26
f 72//27 69//27 71//27
f 70//28 65//28 69//28
f 71//29 65//29 67//29
f 68//30 70//30 72//30
f 66//25 68//25 67//25
f 68//26 72//26 71//26
f 72//27 70//27 69//27
f 70//28 66//28 65//28
f 71//29 69//29 65//29
f 68//30 66//30 70//30
o Cube.003_Cube.005
v 5.853068 3.040551 5.495360
v 6.020204 3.040551 5.495360
v 5.853068 3.040551 -5.495360
v 6.020204 3.040551 -5.495360
v 5.853067 -0.040551 5.495360
v 6.020203 -0.040551 5.495360
v 5.853067 -0.040551 -5.495360
v 6.020203 -0.040551 -5.495360
vn 0.0000 1.0000 0.0000
vn 0.0000 0.0000 -1.0000
vn 0.0000 -1.0000 0.0000
vn 0.0000 0.0000 1.0000
vn -1.0000 0.0000 0.0000
vn 1.0000 0.0000 0.0000
s off
f 74//31 75//31 73//31
f 76//32 79//32 75//32
f 80//33 77//33 79//33
f 78//34 73//34 77//34
f 79//35 73//35 75//35
f 76//36 78//36 80//36
f 74//31 76//31 75//31
f 76//32 80//32 79//32
f 80//33 78//33 77//33
f 78//34 74//34 73//34
f 79//35 77//35 73//35
f 76//36 74//36 78//36
o Cube.001_Cube.004
v -5.842356 -0.029328 -5.451429
v -5.842356 -0.029328 -5.370067
v -5.842356 3.029328 -5.451429
v -5.842356 3.029328 -5.370067
v 5.842356 -0.029328 -5.451429
v 5.842356 -0.029328 -5.370067
v 5.842356 3.029328 -5.451429
v 5.842356 3.029328 -5.370067
vn -1.0000 0.0000 0.0000
vn 0.0000 1.0000 0.0000
vn 1.0000 0.0000 0.0000
vn 0.0000 -1.0000 0.0000
vn 0.0000 0.0000 -1.0000
vn 0.0000 0.0000 1.0000
s off
f 82//37 83//37 81//37
f 84//38 87//38 83//38
f 88//39 85//39 87//39
f 86//40 81//40 85//40
f 87//41 81//41 83//41
f 84//42 86//42 88//42
f 82//37 84//37 83//37
f 84//38 88//38 87//38
f 88//39 86//39 85//39
f 86//40 82//40 81//40
f 87//41 85//41 81//41
f 84//42 82//42 86//42
o Cube.002_Cube.003
v -5.842356 -0.029328 5.379077
v -5.842356 -0.029328 5.460440
v -5.842356 3.029328 5.379077
v -5.842356 3.029328 5.460440
v 5.842356 -0.029328 5.379077
v 5.842356 -0.029328 5.460440
v 5.842356 3.029328 5.379077
v 5.842356 3.029328 5.460440
vn -1.0000 0.0000 0.0000
vn 0.0000 1.0000 0.0000
vn 1.0000 0.0000 0.0000
vn 0.0000 -1.0000 0.0000
vn 0.0000 0.0000 -1.0000
vn 0.0000 0.0000 1.0000
s off
f 90//43 91//43 89//43
f 92//44 95//44 91//44
f 96//45 93//45 95//45
f 94//46 89//46 93//46
f 95//47 89//47 91//47
f 92//48 94//48 96//48
f 90//43 92//43 91//43
f 92//44 96//44 95//44
f 96//45 94//45 93//45
f 94//46 90//46 89//46
f 95//47 93//47 89//47
f 92//48 90//48 94//48
o Cube_Cube.001
v -5.842356 -0.040681 5.360126
v -5.842356 0.040681 5.360126
v -5.842356 -0.040681 -5.360126
v -5.842356 0.040681 -5.360126
v 5.842356 -0.040681 5.360126
v 5.842356 0.040681 5.360126
v 5.842356 -0.040681 -5.360126
v 5.842356 0.040681 -5.360126
vn -1.0000 0.0000 0.0000
vn 0.0000 0.0000 -1.0000
vn 1.0000 0.0000 0.0000
vn 0.0000 0.0000 1.0000
vn 0.0000 -1.0000 0.0000
vn 0.0000 1.0000 0.0000
s off
f 98//49 99//49 97//49
f 100//50 103//50 99//50
f 104//51 101//51 103//51
f 102//52 97//52 101//52
f 103//53 97//53 99//53
f 100//54 102//54 104//54
f 98//49 100//49 99//49
f 100//50 104//50 103//50
f 104//51 102//51 101//51
f 102//52 98//52 97//52
f 103//53 101//53 97//53
f 100//54 98//54 102//54
